<svg xmlns="http://www.w3.org/2000/svg" width="624" height="512" viewBox="0 0 624 512" version="1.1">
	<path d="M 232 0.587 C 230.075 0.815, 224.225 1.467, 219 2.036 C 172.186 7.136, 126.301 27.270, 87.265 59.841 C 74.245 70.705, 66.695 78.452, 55.663 92.268 C 26.761 128.466, 10.115 166.526, 2.860 213 C 0.172 230.217, -0.364 263.482, 1.804 278.500 C 8.732 326.493, 26.306 368.193, 54.486 403.500 C 68.117 420.580, 91.435 441.820, 110.500 454.525 C 151.813 482.055, 197.912 496.049, 247.500 496.114 C 267.710 496.140, 278.549 495.117, 297.560 491.388 L 310.620 488.827 323.110 491.400 C 340.012 494.882, 352.403 496.061, 372 496.050 C 446.485 496.011, 514.777 464.259, 562.260 407.592 C 599.918 362.651, 619.982 308.314, 620.052 251.077 C 620.085 224.404, 617.248 203.444, 610.368 179.541 C 587.545 100.248, 524.993 36, 447.114 11.861 C 419.717 3.369, 401.065 0.566, 372 0.576 C 349.956 0.583, 338.350 1.766, 318.865 5.989 L 310.231 7.861 298.427 5.464 C 291.934 4.146, 282.420 2.599, 277.285 2.027 C 266.955 0.875, 237.486 -0.062, 232 0.587 M 356.635 125.135 C 329.079 128.673, 303.236 141.614, 283.798 161.607 C 272.021 173.721, 265.040 184.277, 256.947 202.215 C 254.186 208.334, 249.923 216.355, 247.474 220.040 C 242.060 228.183, 230.702 239.105, 224.248 242.373 C 213.401 247.866, 212.014 248, 166.217 248 L 123.797 248 124.473 255.250 C 126.220 274.002, 129.741 287.675, 136.382 301.500 C 152.190 334.408, 180.846 358.154, 216.524 367.910 C 259.128 379.559, 306.202 366.389, 337.247 334.136 C 347.835 323.136, 355.378 311.751, 362.476 296.056 C 365.571 289.213, 370.128 280.568, 372.602 276.847 C 380.632 264.768, 392.170 255.026, 403.500 250.759 C 409.344 248.559, 410.635 248.492, 453.254 248.201 L 497.008 247.902 496.540 244.201 C 496.282 242.166, 495.797 237.575, 495.463 234 C 492.882 206.419, 478.876 178.392, 457.642 158.315 C 430.403 132.560, 393.418 120.411, 356.635 125.135" stroke="none" fill="black" fill-rule="evenodd"/>
</svg>